# xmcd CD database file
#
# Track frame offsets:
#	150
#	16690
#	42428
#
# Disc length: 813 seconds
#
# Revision: 3
# Processed by: cddbd v1.5.2PL0 Copyright (c) Steve Scherf et al.
# Submitted via: CDex 1.70beta2
#
DISCID=18032b03
DTITLE=Willy De Ville - Still (single)
DYEAR=1995
DGENRE=Blues
TTITLE0=Still (radio edit)
TTITLE1=When You`re Away From Me
TTITLE2=Still (album)
EXTD=YEAR: 1995
EXTT0=
EXTT1=
EXTT2=
PLAYORDER=
